<svg width="100" height="100" viewBox="0 0 100 100" xmlns="http://www.w3.org/2000/svg">
  <defs>
    <pattern id="grid" width="20" height="20" patternUnits="userSpaceOnUse">
      <!-- Small circles -->
      <circle cx="10" cy="10" r="1" fill="#e11d48" opacity="0.3" />

      <!-- Corner dots -->
      <circle cx="0" cy="0" r="0.5" fill="#000000" opacity="0.2" />
      <circle cx="20" cy="0" r="0.5" fill="#000000" opacity="0.2" />
      <circle cx="0" cy="20" r="0.5" fill="#000000" opacity="0.2" />
      <circle cx="20" cy="20" r="0.5" fill="#000000" opacity="0.2" />

      <!-- Thin connecting lines -->
      <line x1="0" y1="0" x2="20" y2="0" stroke="#000000" stroke-width="0.2" opacity="0.1" />
      <line x1="0" y1="20" x2="20" y2="20" stroke="#000000" stroke-width="0.2" opacity="0.1" />
      <line x1="0" y1="0" x2="0" y2="20" stroke="#000000" stroke-width="0.2" opacity="0.1" />
      <line x1="20" y1="0" x2="20" y2="20" stroke="#000000" stroke-width="0.2" opacity="0.1" />

      <!-- Diagonal accent lines -->
      <line x1="0" y1="10" x2="10" y2="20" stroke="#e11d48" stroke-width="0.2" opacity="0.15" />
      <line x1="10" y1="0" x2="20" y2="10" stroke="#e11d48" stroke-width="0.2" opacity="0.15" />
    </pattern>
  </defs>

  <!-- Background with pattern -->
  <rect width="100%" height="100%" fill="white" />
  <rect width="100%" height="100%" fill="url(#grid)" />

  <!-- Overlay karate-inspired elements -->
  <g opacity="0.05">
    <!-- Stylized karate belt shapes -->
    <path d="M20,80 Q25,85 30,80 T40,80 T50,80 T60,80 T70,80 Q75,85 80,80"
          fill="none" stroke="#000000" stroke-width="1.5" />

    <!-- Abstract martial arts movement paths -->
    <path d="M30,30 C40,25 50,35 60,30 S80,40 90,35"
          fill="none" stroke="#e11d48" stroke-width="1" />
    <path d="M30,50 C35,45 40,55 45,50 S55,45 60,50"
          fill="none" stroke="#000000" stroke-width="1" />
  </g>
</svg>
